<?xml version="1.0" standalone="no"?>
<!DOCTYPE svg PUBLIC "-//W3C//DTD SVG 20010904//EN"
 "http://www.w3.org/TR/2001/REC-SVG-20010904/DTD/svg10.dtd">
<svg version="1.0" xmlns="http://www.w3.org/2000/svg"
 width="736.000000pt" height="736.000000pt" viewBox="0 0 736.000000 736.000000"
 preserveAspectRatio="xMidYMid meet">

<g transform="translate(0.000000,736.000000) scale(0.100000,-0.100000)"
fill="#000000" stroke="none">
<path d="M3000 4305 l0 -225 -225 0 -225 0 0 -625 0 -625 225 0 225 0 0 626 0
626 158 -4 c150 -3 159 -4 204 -30 32 -19 52 -41 67 -71 21 -42 21 -55 21
-595 l0 -552 230 0 231 0 -3 626 -3 626 160 -4 c170 -4 196 -10 242 -60 53
-57 53 -55 53 -643 l0 -545 225 0 225 0 0 625 0 624 -23 74 c-56 177 -203 314
-384 361 -46 12 -113 16 -282 16 l-221 0 0 -217 -1 -218 -22 65 c-58 172 -207
309 -384 355 -42 11 -114 15 -275 15 l-218 0 0 -225z"/>
</g>
</svg>
